<mxfile host="app.diagrams.net" modified="2024-03-06T20:16:35.953Z" agent="Mozilla/5.0 (Windows NT 10.0; Win64; x64) AppleWebKit/537.36 (KHTML, like Gecko) Chrome/120.0.6099.809 YaBrowser/24.1.3.809 Yowser/2.5 Safari/537.36" version="24.0.2" etag="TNgH9c2S7wrn5t04lafD" type="github">
  <diagram name="Страница — 1" id="9EwejjfcN0FYOfMwyB3D">
    <mxGraphModel>
      <root>
        <mxCell id="0" />
        <mxCell id="1" parent="0" />
      </root>
    </mxGraphModel>
  </diagram>
</mxfile>
